<?xml version="1.0" encoding="UTF-8"?>
<svg id="Layer_1" data-name="Layer 1" xmlns="http://www.w3.org/2000/svg" viewBox="0 0 1082.16 404.13">
  <defs>
    <style>
      .cls-1 {
        fill: #2b3990;
      }

      .cls-1, .cls-2 {
        stroke-width: 0px;
      }
    </style>
  </defs>
  <g>
    <path class="cls-2" d="m492.45,159.27V50.75h-18.73v-18.1h120.27v43.59h-17.89v-25.49h-61.8v43.07h53.79v18.1h-53.79v47.34h61.8v-26.32h17.89v44.43h-120.27v-18.1h18.73Z"/>
    <path class="cls-2" d="m733.73,159.79v17.58h-37.87v-14.77c-9.85,10.96-21.85,16.44-36,16.44-13.11,0-24.62-4.47-34.54-13.42-9.92-8.95-14.88-21.68-14.88-38.18s5.1-29.65,15.29-39.22c10.2-9.57,21.71-14.36,34.54-14.36,13.59,0,25.45,5.41,35.58,16.23v-39.85h-19.35v-17.58h39.12v127.14h18.1Zm-102.17-32.88c0,11.1,3.14,19.63,9.42,25.59,6.28,5.97,13.79,8.95,22.53,8.95s15.97-3.14,22.52-9.42c6.55-6.28,9.83-14.96,9.83-26.06s-3.35-19.59-10.04-25.28c-6.69-5.69-14.2-8.53-22.52-8.53-8.95,0-16.47,3.35-22.58,10.04-6.11,6.69-9.16,14.93-9.16,24.71Z"/>
    <path class="cls-2" d="m852.13,159.79v17.58h-37.14v-11.55c-11.59,8.81-22.68,13.21-33.29,13.21-6.73,0-12.29-1.47-16.7-4.42-4.41-2.95-7.34-6.76-8.79-11.45-1.46-4.68-2.18-12.22-2.18-22.63v-46.3h-14.25v-17.58h34.02v61.38c0,7.42.21,12.42.62,14.98.42,2.57,1.63,4.68,3.64,6.35s4.54,2.5,7.6,2.5c9.16,0,18.94-4.37,29.34-13.11v-54.52h-17.79v-17.58h37.56v83.13h17.38Z"/>
    <path class="cls-2" d="m873.77,159.78h114.45v17.59h-114.45v-17.59Z"/>
    <path class="cls-2" d="m522.15,370.02l-36.87-128.08h-17.38v-18.1h55.35v18.1h-17.35l27.39,94.68,26.32-94.68h-17.22v-18.1h66.48v18.1h-17.01l26.43,94.68,26.87-94.68h-17.25v-18.1h53.27v18.1h-17.06l-36.14,128.08h-20.72l-32.57-114.45-32.36,114.45h-20.2Z"/>
    <path class="cls-2" d="m669.95,318.21c0-15.54,5.13-28.28,15.4-38.24,10.26-9.95,22.79-14.93,37.56-14.93s26.95,4.91,37.35,14.72c10.41,9.82,15.61,22.63,15.61,38.44s-5.19,28.65-15.55,38.5c-10.37,9.85-22.84,14.77-37.4,14.77s-27.55-4.99-37.72-14.98c-10.16-9.99-15.24-22.75-15.24-38.29Zm20.91-.05c0,9.94,3.1,18.09,9.31,24.44,6.21,6.35,13.79,9.53,22.73,9.53s16.7-3.21,22.84-9.63c6.14-6.42,9.21-14.53,9.21-24.34s-3.12-18-9.36-24.39c-6.24-6.39-13.8-9.58-22.68-9.58s-16.96,3.27-22.99,9.79c-6.03,6.53-9.05,14.59-9.05,24.18Z"/>
    <path class="cls-2" d="m808.95,350.98v-65.55h-20.29v-17.58h36.1v22.68c2.22-5.89,5.31-10.78,9.26-14.67,3.95-3.88,8.13-6.45,12.54-7.7,4.4-1.25,10.42-1.87,18.05-1.87h5.2v19.98h-3.95c-10.06,0-17.57,1.01-22.53,3.02-4.96,2.01-8.63,5.67-11.03,10.98-2.39,5.31-3.59,14.83-3.59,28.56v22.16h21.95v17.58h-62.01v-17.58h20.29Z"/>
    <path class="cls-2" d="m891.87,350.98v-109.56h-18.1v-17.58h37.87v90.41l37.66-30.07h-16.75v-16.33h55.66v16.33h-15.4l-37.77,31.42,35.48,35.37h17.69v17.58h-25.91l-50.67-50.67v33.09h17.38v17.58h-55.25v-17.58h18.1Z"/>
    <path class="cls-2" d="m999.45,368.56v-34.54h17.69v3.33c.62,4.72,3.17,8.6,7.65,11.65s9.76,4.58,15.87,4.58,11.48-1.11,15.29-3.33c3.81-2.22,5.72-5.3,5.72-9.26s-1.58-6.62-4.73-8.43c-3.16-1.8-9.42-3.46-18.78-4.98-13.87-2.34-23.78-6.13-29.7-11.38-5.93-5.24-8.89-12.02-8.89-20.35s3.22-15.42,9.68-21.08c6.45-5.66,14.94-8.49,25.49-8.49,9.5,0,17.69,1.96,24.55,5.87v-4.31h17.58v33.4h-17.58v-6.14c-5.34-8.25-13.11-12.38-23.31-12.38-5.2,0-9.48,1.13-12.85,3.38-3.37,2.25-5.05,5.25-5.05,9s1.54,6.43,4.63,7.85c3.08,1.42,9.73,2.93,19.92,4.51,9.78,1.52,17.17,3.3,22.16,5.35,5,2.05,9.14,5.45,12.43,10.2,3.29,4.75,4.94,10.28,4.94,16.6,0,9.37-3.59,16.81-10.77,22.33-7.18,5.52-16.49,8.27-27.93,8.27-10.75,0-19.53-2.44-26.32-7.33v5.66h-17.69Z"/>
  </g>
  <path class="cls-1" d="m0,0v404.13h404.13V0H0Zm300.99,230.95s-32.58,18.3-82.35,18.3-102.08-15.55-102.08-15.55v-51.97l96.08,14.65,88.35-14.65v49.22Zm-87.56-41.7l-129.74-17.33v77.78h17.02v45.21l-20.16-10.09-20.14,10.09v-45.21h17.02v-78.63l-33.15-4.43,161.82-25.65,165.82,25.65-158.49,22.61Z"/>
</svg>